PathFileType	4	(x/y/z)	S08_SL_Cal_T01
DataRate	CameraRate	NumFrames	NumMarkers	Units	OrigDataRate	OrigDataStartFrame	OrigNumFrames
240	240	10	51	mm	240	1	2400
Frame#	Time	Sternum			R.Acromium			L.Acromium			Top.Head			R.ASIS			L.ASIS			R.PSIS			L.PSIS			R.Great.Tro			L.Great.Tro			R.Iliac.Crest			L.Iliac.Crest			V.Sacral			R.Thigh.Upper.Post			R.Thigh.Lower.Ant			R.Thigh.Lower.Post			R.Thigh.Upper.Ant			R.Knee.Lat			R.Knee.Med			R.Shank.Upper.Post			R.Shank.Lower.Ant			R.Shank.Lower.Post			R.Shank.Upper.Ant			R.Ankle.Lat			R.Ankle.Med			R.Heel.Upper			R.Heel.Med			R.Heel.Lat			R.Toe.Lat			R.Toe.Med			R.Toe.Tip			L.Thigh.Upper.Post			L.Thigh.Lower.Ant			L.Thigh.Lower.Post			L.Thigh.Upper.Ant			L.Knee.Lat			L.Knee.Med			L.Shank.Upper.Post			L.Shank.Lower.Ant			L.Shank.Lower.Post			L.Shank.Upper.Ant			L.Ankle.Lat			L.Ankle.Med			L.Heel.Upper			L.Heel.Med			L.Heel.Lat			L.Toe.Lat			L.Toe.Med			L.Toe.Tip			Cervical.Spine			Back			
		X1	Y1	Z1	X2	Y2	Z2	X3	Y3	Z3	X4	Y4	Z4	X5	Y5	Z5	X6	Y6	Z6	X7	Y7	Z7	X8	Y8	Z8	X9	Y9	Z9	X10	Y10	Z10	X11	Y11	Z11	X12	Y12	Z12	X13	Y13	Z13	X14	Y14	Z14	X15	Y15	Z15	X16	Y16	Z16	X17	Y17	Z17	X18	Y18	Z18	X19	Y19	Z19	X20	Y20	Z20	X21	Y21	Z21	X22	Y22	Z22	X23	Y23	Z23	X24	Y24	Z24	X25	Y25	Z25	X26	Y26	Z26	X27	Y27	Z27	X28	Y28	Z28	X29	Y29	Z29	X30	Y30	Z30	X31	Y31	Z31	X32	Y32	Z32	X33	Y33	Z33	X34	Y34	Z34	X35	Y35	Z35	X36	Y36	Z36	X37	Y37	Z37	X38	Y38	Z38	X39	Y39	Z39	X40	Y40	Z40	X41	Y41	Z41	X42	Y42	Z42	X43	Y43	Z43	X44	Y44	Z44	X45	Y45	Z45	X46	Y46	Z46	X47	Y47	Z47	X48	Y48	Z48	X49	Y49	Z49	X50	Y50	Z50	X51	Y51	Z51	

1	0	559.47	1247.8	330.38	413.91	1481.4	498.63	406.36	1496.8	163.69	435.7	1806.1	345.15	531.93	1022.9	435.23	538.61	1026.4	201.73	335.34	1051.1	355.21	341.08	1059	262.25	450.03	924.36	502.54	434.74	928.28	136.64	434.62	1092	478.98	450.34	1109.6	174.64	318.95	1016.9	305.94	397.22	736.67	514.76	457.74	623.46	501.31	390.01	646.27	509.43	474.45	717.01	509.19	408.39	529.76	499.83	388.12	518.34	373.73	325.87	355.29	525.5	389.38	291.7	518.44	327.3	276.82	526.19	391.74	368.8	518.33	334.92	102.79	509.19	367.94	111.82	433.97	291.37	65.369	464.75	305.42	39.283	437.98	294.76	42.152	499.1	NaN	NaN	NaN	491.77	44.514	440.36	554.06	59.393	490.84	392.72	737.26	121.58	463.88	633.29	126.04	396.11	645.65	124.26	463.27	722.26	115.84	395.12	533.91	129.66	405.07	513.62	254.31	321.43	357.48	110.69	388.96	268.4	111.5	318.7	283.47	117.02	385.64	345.01	107.01	346.58	104.63	103.35	374.58	103.06	185.82	294.79	75.963	149.08	311.6	42.033	179.14	301.51	48.562	116.15	474.9	38.443	67.33	503.16	44.413	180.12	562.6	59.239	126.9	346.41	1524.3	321.91	325.43	1242.8	334.35
2	0.0041667	559.44	1247.7	330.32	413.91	1481.4	498.67	406.72	1496.6	163.68	435.64	1806.1	345.14	531.93	1022.9	435.22	538.63	1026.4	201.73	335.35	1051.1	355.25	341.11	1059.1	262.3	450.05	924.39	502.57	434.78	928.29	136.66	434.59	1092	479.04	450.36	1109.6	174.65	318.98	1017	305.95	397.25	736.75	514.89	457.75	623.4	501.2	390.02	646.29	509.5	474.47	717.02	509.19	408.44	529.78	499.86	388.16	518.36	373.73	325.96	355.32	525.54	389.39	291.69	518.44	327.22	276.94	526.12	391.74	368.79	518.39	334.96	102.79	509.22	367.92	111.87	434	291.34	65.463	464.66	305.42	39.306	438.02	294.77	42.185	499.14	NaN	NaN	NaN	491.74	44.492	440.39	554.06	59.394	490.84	392.74	737.31	121.63	463.89	633.29	126.05	396.14	645.7	124.31	463.3	722.27	115.84	395.16	533.94	129.67	405.07	513.62	254.31	321.47	357.53	110.72	388.95	268.39	111.52	318.72	283.49	117.08	385.64	345	107.02	346.54	104.9	103.28	374.69	103	185.77	294.81	76.005	149.08	311.63	42.055	179.16	301.51	48.582	116.2	474.94	38.461	67.343	503.14	44.373	180.19	562.59	59.235	126.91	346.39	1524.3	321.96	325.45	1242.8	334.38
3	0.0083333	559.41	1247.6	330.26	413.91	1481.4	498.71	407.07	1496.5	163.67	435.59	1806.1	345.14	531.94	1022.9	435.21	538.65	1026.4	201.72	335.36	1051.1	355.3	341.13	1059.1	262.35	450.08	924.42	502.59	434.81	928.29	136.69	434.56	1092.1	479.09	450.37	1109.6	174.65	319.02	1017	305.96	397.28	736.83	515.03	457.76	623.33	501.1	390.02	646.31	509.57	474.5	717.02	509.19	408.48	529.8	499.89	388.19	518.38	373.74	326.05	355.35	525.58	389.4	291.68	518.44	327.14	277.06	526.05	391.74	368.78	518.44	335	102.79	509.24	367.91	111.93	434.04	291.32	65.556	464.58	305.43	39.329	438.05	294.79	42.218	499.18	NaN	NaN	NaN	491.7	44.47	440.42	554.06	59.394	490.85	392.77	737.35	121.68	463.9	633.29	126.07	396.17	645.75	124.35	463.33	722.28	115.83	395.2	533.96	129.68	405.06	513.61	254.31	321.5	357.58	110.74	388.95	268.37	111.53	318.74	283.52	117.15	385.65	344.99	107.03	346.51	105.16	103.21	374.79	102.95	185.74	294.82	76.05	149.08	311.66	42.077	179.19	301.52	48.602	116.25	474.97	38.48	67.357	503.11	44.334	180.25	562.58	59.23	126.92	346.37	1524.3	322.01	325.48	1242.8	334.41
4	0.0125	559.39	1247.5	330.21	413.91	1481.4	498.75	407.4	1496.4	163.66	435.54	1806.1	345.14	531.95	1022.9	435.21	538.67	1026.4	201.72	335.36	1051.1	355.35	341.15	1059.1	262.4	450.1	924.44	502.61	434.84	928.3	136.71	434.53	1092.1	479.14	450.39	1109.6	174.65	319.05	1017.1	305.97	397.31	736.9	515.16	457.77	623.27	501	390.02	646.33	509.63	474.52	717.03	509.19	408.52	529.82	499.91	388.23	518.4	373.74	326.13	355.38	525.63	389.41	291.66	518.45	327.07	277.17	525.99	391.74	368.76	518.5	335.03	102.79	509.27	367.9	111.98	434.07	291.3	65.645	464.5	305.44	39.351	438.09	294.8	42.249	499.22	NaN	NaN	NaN	491.67	44.449	440.45	554.06	59.395	490.86	392.79	737.39	121.73	463.91	633.29	126.09	396.2	645.8	124.4	463.36	722.29	115.83	395.23	533.98	129.7	405.06	513.61	254.31	321.54	357.63	110.76	388.95	268.36	111.55	318.75	283.54	117.21	385.65	344.98	107.04	346.46	105.38	103.15	374.89	102.9	185.7	294.84	76.095	149.09	311.69	42.098	179.21	301.53	48.622	116.3	475	38.498	67.369	503.09	44.296	180.32	562.57	59.226	126.93	346.35	1524.3	322.06	325.5	1242.8	334.45
5	0.016667	559.36	1247.4	330.16	413.91	1481.5	498.78	407.7	1496.4	163.65	435.48	1806.1	345.13	531.95	1022.9	435.21	538.69	1026.4	201.71	335.37	1051.1	355.39	341.17	1059.1	262.45	450.12	924.47	502.63	434.87	928.31	136.73	434.5	1092.1	479.19	450.4	1109.6	174.66	319.08	1017.1	305.98	397.34	736.97	515.28	457.77	623.21	500.91	390.02	646.34	509.69	474.54	717.04	509.19	408.56	529.84	499.94	388.26	518.42	373.75	326.21	355.4	525.67	389.41	291.65	518.45	327	277.27	525.93	391.74	368.75	518.54	335.07	102.8	509.29	367.89	112.03	434.11	291.27	65.729	464.42	305.45	39.372	438.12	294.81	42.279	499.26	NaN	NaN	NaN	491.64	44.429	440.48	554.07	59.395	490.87	392.82	737.42	121.78	463.92	633.29	126.1	396.23	645.84	124.44	463.39	722.3	115.82	395.26	534	129.71	405.06	513.61	254.31	321.57	357.67	110.78	388.95	268.34	111.57	318.77	283.56	117.27	385.65	344.97	107.05	346.41	105.56	103.1	374.99	102.86	185.66	294.86	76.141	149.11	311.71	42.118	179.23	301.54	48.641	116.34	475.03	38.515	67.381	503.07	44.26	180.38	562.56	59.223	126.94	346.33	1524.3	322.1	325.52	1242.8	334.48
6	0.020833	559.33	1247.3	330.11	413.9	1481.5	498.81	407.97	1496.3	163.65	435.42	1806.1	345.13	531.96	1022.9	435.2	538.7	1026.4	201.71	335.38	1051.2	355.43	341.19	1059.1	262.5	450.14	924.49	502.65	434.9	928.31	136.74	434.47	1092.2	479.23	450.41	1109.6	174.66	319.1	1017.1	305.99	397.36	737.03	515.39	457.78	623.16	500.82	390.02	646.36	509.75	474.57	717.04	509.19	408.6	529.86	499.96	388.3	518.44	373.75	326.29	355.43	525.71	389.42	291.64	518.45	326.94	277.37	525.88	391.73	368.74	518.59	335.1	102.8	509.32	367.88	112.08	434.14	291.26	65.805	464.35	305.45	39.391	438.15	294.83	42.306	499.3	NaN	NaN	NaN	491.62	44.41	440.5	554.07	59.394	490.88	392.84	737.45	121.83	463.92	633.29	126.12	396.26	645.88	124.47	463.41	722.3	115.82	395.29	534.02	129.72	405.06	513.61	254.32	321.6	357.71	110.8	388.94	268.33	111.58	318.79	283.58	117.32	385.66	344.96	107.06	346.35	105.71	103.07	375.07	102.81	185.63	294.89	76.188	149.12	311.71	42.136	179.25	301.55	48.66	116.37	475.05	38.531	67.391	503.05	44.226	180.43	562.56	59.219	126.95	346.31	1524.3	322.14	325.54	1242.8	334.5
7	0.025	559.31	1247.3	330.07	413.9	1481.5	498.84	408.2	1496.2	163.64	435.37	1806.1	345.12	531.97	1022.9	435.2	538.72	1026.4	201.7	335.39	1051.2	355.46	341.21	1059.1	262.54	450.16	924.51	502.67	434.92	928.32	136.76	434.45	1092.2	479.27	450.42	1109.6	174.66	319.12	1017.2	306	397.38	737.09	515.49	457.79	623.11	500.75	390.03	646.38	509.8	474.59	717.04	509.19	408.63	529.88	499.98	388.32	518.45	373.75	326.35	355.45	525.74	389.43	291.63	518.45	326.89	277.46	525.83	391.73	368.73	518.63	335.13	102.8	509.34	367.87	112.12	434.16	291.24	65.874	464.29	305.46	39.409	438.17	294.84	42.33	499.33	NaN	NaN	NaN	491.59	44.393	440.53	554.07	59.394	490.88	392.85	737.48	121.87	463.93	633.29	126.13	396.28	645.92	124.51	463.43	722.31	115.81	395.32	534.04	129.73	405.05	513.61	254.32	321.62	357.74	110.81	388.94	268.32	111.59	318.8	283.59	117.37	385.66	344.96	107.07	346.29	105.81	103.04	375.15	102.78	185.6	294.92	76.234	149.15	311.71	42.154	179.27	301.57	48.678	116.4	475.08	38.546	67.4	503.03	44.195	180.48	562.55	59.216	126.96	346.29	1524.3	322.18	325.56	1242.8	334.53
8	0.029167	559.29	1247.2	330.03	413.89	1481.5	498.87	408.4	1496.1	163.63	435.32	1806.1	345.11	531.97	1022.9	435.2	538.73	1026.4	201.7	335.39	1051.2	355.49	341.22	1059.1	262.58	450.18	924.53	502.69	434.94	928.33	136.77	434.43	1092.2	479.31	450.43	1109.6	174.66	319.14	1017.2	306.01	397.41	737.13	515.58	457.8	623.07	500.68	390.03	646.39	509.85	474.61	717.05	509.19	408.67	529.89	500	388.35	518.47	373.76	326.41	355.47	525.78	389.44	291.62	518.46	326.84	277.54	525.79	391.72	368.72	518.66	335.16	102.8	509.35	367.86	112.15	434.19	291.22	65.935	464.24	305.46	39.424	438.19	294.85	42.352	499.36	NaN	NaN	NaN	491.57	44.377	440.55	554.07	59.393	490.89	392.87	737.51	121.9	463.93	633.29	126.14	396.3	645.95	124.54	463.45	722.32	115.81	395.34	534.05	129.73	405.05	513.61	254.32	321.65	357.77	110.83	388.94	268.31	111.6	318.82	283.61	117.41	385.66	344.95	107.08	346.22	105.88	103.02	375.21	102.74	185.58	294.95	76.279	149.18	311.7	42.169	179.28	301.58	48.696	116.42	475.1	38.558	67.408	503.02	44.168	180.52	562.55	59.213	126.97	346.27	1524.3	322.21	325.58	1242.8	334.55
9	0.033333	559.27	1247.1	330	413.88	1481.6	498.89	408.56	1496.1	163.63	435.27	1806.1	345.1	531.98	1022.8	435.2	538.75	1026.4	201.7	335.4	1051.2	355.52	341.24	1059.1	262.61	450.19	924.54	502.71	434.96	928.33	136.79	434.4	1092.2	479.34	450.44	1109.6	174.66	319.15	1017.2	306.02	397.42	737.18	515.65	457.81	623.03	500.62	390.03	646.4	509.89	474.63	717.05	509.19	408.69	529.91	500.02	388.37	518.48	373.76	326.47	355.49	525.8	389.45	291.61	518.46	326.8	277.6	525.75	391.72	368.72	518.69	335.18	102.8	509.37	367.85	112.18	434.21	291.21	65.987	464.19	305.47	39.437	438.21	294.86	42.37	499.39	NaN	NaN	NaN	491.56	44.363	440.57	554.08	59.392	490.89	392.88	737.53	121.93	463.94	633.29	126.15	396.32	645.98	124.56	463.47	722.32	115.8	395.36	534.07	129.74	405.05	513.6	254.32	321.67	357.8	110.84	388.94	268.3	111.61	318.83	283.62	117.44	385.66	344.94	107.08	346.15	105.91	103.01	375.26	102.72	185.57	294.99	76.322	149.22	311.68	42.184	179.29	301.6	48.714	116.43	475.11	38.569	67.415	503.01	44.144	180.56	562.54	59.211	126.98	346.25	1524.2	322.23	325.59	1242.8	334.57
10	0.0375	559.25	1247.1	329.98	413.86	1481.6	498.91	408.69	1496	163.63	435.22	1806.1	345.09	531.98	1022.8	435.2	538.76	1026.4	201.7	335.4	1051.2	355.54	341.25	1059.1	262.64	450.21	924.55	502.72	434.98	928.34	136.8	434.39	1092.3	479.36	450.45	1109.7	174.67	319.17	1017.2	306.02	397.44	737.21	515.72	457.81	623	500.57	390.03	646.41	509.93	474.64	717.06	509.19	408.72	529.92	500.03	388.39	518.49	373.77	326.51	355.5	525.83	389.45	291.6	518.46	326.77	277.66	525.73	391.71	368.71	518.71	335.2	102.8	509.38	367.85	112.21	434.23	291.2	66.032	464.15	305.47	39.448	438.23	294.87	42.386	499.41	NaN	NaN	NaN	491.54	44.351	440.58	554.08	59.392	490.9	392.89	737.54	121.96	463.94	633.29	126.15	396.33	646	124.58	463.48	722.33	115.8	395.38	534.08	129.75	405.05	513.6	254.32	321.68	357.82	110.85	388.93	268.29	111.62	318.84	283.63	117.47	385.66	344.94	107.09	346.08	105.92	103	375.3	102.7	185.56	295.03	76.362	149.26	311.64	42.197	179.3	301.62	48.732	116.44	475.13	38.577	67.421	503	44.123	180.59	562.54	59.209	126.98	346.22	1524.2	322.25	325.6	1242.7	334.58
